<?xml version="1.0" encoding="utf-8"?>
<!-- Generator: Adobe Illustrator 18.1.1, SVG Export Plug-In . SVG Version: 6.00 Build 0)  -->
<svg version="1.1" id="Layer_1" xmlns="http://www.w3.org/2000/svg" xmlns:xlink="http://www.w3.org/1999/xlink" x="0px" y="0px"
	 viewBox="662 831.8 60 60" enable-background="new 662 831.8 60 60" xml:space="preserve">
<g id="Layer_1_1_">
</g>
<g id="TEXTO_BLANCO">
</g>
<g id="GUIAS">
</g>
<g>
	<path fill="#424461" d="M712,833.8c4.4,0,8,3.6,8,8v40c0,4.4-3.6,8-8,8h-40c-4.4,0-8-3.6-8-8v-40c0-4.4,3.6-8,8-8H712 M712,831.8
		h-40c-5.5,0-10,4.5-10,10v40c0,5.5,4.5,10,10,10h40c5.5,0,10-4.5,10-10v-40C722,836.3,717.5,831.8,712,831.8L712,831.8z"/>
</g>
<g id="CATAS">
	<path fill="#424461" d="M702,854.8h-7v-4.9c0-1.7,1.1-2.1,1.9-2.1c0.8,0,5,0,5,0v-7l-6.9,0c-7.4,0-9.1,5.5-9.1,9.1v5h-4v8h4
		c0,9.8,0,21,0,21h9c0,0,0-11.3,0-21h6.2L702,854.8z"/>
</g>
</svg>
