<?xml version="1.0" encoding="utf-8"?>
<!-- Generator: Adobe Illustrator 18.1.1, SVG Export Plug-In . SVG Version: 6.00 Build 0)  -->
<svg version="1.1" id="Layer_1" xmlns="http://www.w3.org/2000/svg" xmlns:xlink="http://www.w3.org/1999/xlink" x="0px" y="0px"
	 viewBox="0 0 600 600" enable-background="new 0 0 600 600" xml:space="preserve">
<g id="Layer_1_1_">
</g>
<g id="CATAS">
	<g>
		<g>
			<path fill="#424461" d="M499.2,37.7c38.9,0,70.3,31.4,70.3,70.3v398.4c0,38.9-31.4,70.3-70.3,70.3H100.8
				c-38.9,0-70.3-31.4-70.3-70.3V108c0-38.9,31.4-70.3,70.3-70.3L499.2,37.7 M499.2,19H100.8C51.6,19,11.7,58.8,11.7,108v398.4
				c0,49.2,39.8,89.1,89.1,89.1h398.4c49.2,0,89.1-39.8,89.1-89.1V108C588.3,59.1,548.4,19,499.2,19L499.2,19z"/>
		</g>
	</g>
	<g>
		<polygon fill="#424461" points="468,252.2 468,289.5 505.3,289.5 505.3,326 468,326 468,363.3 431.5,363.3 431.5,326 394,326 
			394,289.5 431.5,289.5 431.5,252.2 		"/>
		<path fill="#424461" d="M132,398.9c-50.2-50.2-49.5-134.8,1.2-184.5c37.5-36.6,91.9-45.7,137.8-27.4l19.2,9.4l19.7,13.6l-34,33.8
			l-11.7-8.2c-29.8-18.5-70.3-14.3-96.8,12c-31.9,31.6-32.1,86.7-0.7,118.8s86.2,32.6,115.8,0.5c8.2-8.9,15.7-20.4,18-32.1l0.7-3.8
			h-74.3v-41h118.6l1.4,9.6l-0.5,27.9c-2.8,27.4-12.7,52.7-31.2,72.4C268.8,449.5,182.1,449.3,132,398.9z"/>
	</g>
</g>
<g id="TEXTO_BLANCO">
</g>
<g id="GUIAS">
</g>
</svg>
