<?xml version="1.0" encoding="utf-8"?>
<!-- Generator: Adobe Illustrator 18.1.1, SVG Export Plug-In . SVG Version: 6.00 Build 0)  -->
<svg version="1.1" id="Layer_1" xmlns="http://www.w3.org/2000/svg" xmlns:xlink="http://www.w3.org/1999/xlink" x="0px" y="0px"
	 viewBox="0 0 600 600" enable-background="new 0 0 600 600" xml:space="preserve">
<g id="Layer_1_1_">
</g>
<g id="CATAS">
	<g>
		<g>
			<path fill="#424461" d="M499.2,37.7c38.9,0,70.3,31.4,70.3,70.3v398.4c0,38.9-31.4,70.3-70.3,70.3H100.8
				c-38.9,0-70.3-31.4-70.3-70.3V108c0-38.9,31.4-70.3,70.3-70.3L499.2,37.7 M499.2,19H100.8C51.6,19,11.7,58.8,11.7,108v398.4
				c0,49.2,39.8,89.1,89.1,89.1h398.4c49.2,0,89.1-39.8,89.1-89.1V108C588.3,59.1,548.4,19,499.2,19L499.2,19z"/>
		</g>
	</g>
	<path fill="#424461" d="M94.7,430.1c0-81.6,0-162.9,0-244.5c5.4-15.2,16.9-19.5,32.1-19.5c116,0.2,232,0.2,348,0.2
		c21.3,0,30,8.4,30,29.8c0,73.6-0.2,147,0.2,220.5c0,15.7-4.9,26.2-20.2,31.6c-123.5,0-246.8,0-370.3,0
		C105.5,445.3,98.9,439,94.7,430.1z M228,309.6c-38.2,38.2-76.4,76.6-114.4,115.1c-1.9,1.9-2.3,5.4-3.5,8.2c2.8-0.9,6.3-0.9,8.4-2.8
		c32.1-26,63.7-52.5,95.6-78.7c13.8-11.2,27.7-22.7,41.5-34c8.7,7.3,16.6,14.1,24.6,20.4c12.7,10.3,28.4,10.1,40.8-0.2
		c8-6.6,15.7-13.1,23.9-19.9c2.6,2.1,4.9,3.5,7,5.4c42.4,35.2,84.6,70.1,127.3,105c2.8,2.3,7,3.3,10.5,4.9
		c-1.9-3.8-2.8-8.2-5.6-10.8c-40.3-39.6-81.1-78.8-122.3-119.1c5.2-4.5,7.5-6.3,9.6-8.4c37.7-34.7,75.7-69.4,113.4-104.1
		c1.6-1.4,3.5-2.6,4.5-4.5c0.7-1.2,1.2-3.8,0.5-4.7c-0.7-0.9-3.3-1.4-4.7-0.9c-1.9,0.7-3.5,2.3-5.2,3.8c-51.3,41-102.4,82-153.5,123
		c-18,14.5-34.5,14.5-52.5,0c-51.3-41.2-102.9-82.5-154.5-123.5c-2.3-1.9-6.1-1.6-9.1-2.3c1.4,2.6,1.9,6.1,4,8
		c21.3,19.9,43.1,39.4,64.7,59.1c19,17.3,38,34.7,58.6,53.4C233.7,305.2,230.6,307,228,309.6z"/>
</g>
<g id="TEXTO_BLANCO">
</g>
<g id="GUIAS">
</g>
</svg>
