<?xml version="1.0" encoding="utf-8"?>
<!-- Generator: Adobe Illustrator 18.1.1, SVG Export Plug-In . SVG Version: 6.00 Build 0)  -->
<svg version="1.1" id="Layer_1" xmlns="http://www.w3.org/2000/svg" xmlns:xlink="http://www.w3.org/1999/xlink" x="0px" y="0px"
	 viewBox="0 0 60 60" enable-background="new 0 0 60 60" xml:space="preserve">
<g id="Layer_1_1_">
</g>
<g id="FRAMES">
</g>
<g id="TEXTO_SOMBRA" opacity="0.27">
</g>
<g id="TEXTO">
</g>
<g id="FONDO_ACTIVO" display="none">
</g>
<g id="HOVER" display="none">
</g>
<g id="CATAS">
	<g>
		<path fill="#424461" d="M50.2,2.6c4,0,7.1,3.2,7.1,7.1v40.5c0,4-3.2,7.1-7.1,7.1H9.8c-4,0-7.1-3.2-7.1-7.1V9.8
			c0-4,3.2-7.1,7.1-7.1L50.2,2.6 M50.2,0.7H9.8c-5,0-9.1,4-9.1,9.1v40.5c0,5,4,9.1,9.1,9.1h40.5c5,0,9.1-4.1,9.1-9.1V9.8
			C59.3,4.8,55.2,0.7,50.2,0.7L50.2,0.7z"/>
	</g>
</g>
<g id="TEXTO_BLANCO">
</g>
<g id="CATALOGOS">
</g>
<g id="CATALOGOS_3d">
</g>
<g id="FOLLETOS">
</g>
<g id="CONCURSOS">
</g>
<g id="ILUSTRACION">
</g>
<g id="CONCURSOS_copy">
</g>
<g id="GUIAS">
</g>
<g id="Layer_1_2_">
</g>
<g id="FRAMES_1_">
</g>
<g id="TEXTO_SOMBRA_1_" opacity="0.27">
</g>
<g id="TEXTO_1_">
</g>
<g id="FONDO_ACTIVO_1_" display="none">
</g>
<g id="HOVER_1_" display="none">
</g>
<g id="TEXTO_BLANCO_1_">
</g>
<g id="CATALOGOS_1_">
</g>
<g id="CATALOGOS_3d_1_">
</g>
<g id="FOLLETOS_1_">
</g>
<g id="CONCURSOS_1_">
</g>
<g id="ILUSTRACION_1_">
</g>
<g id="CONCURSOS_copy_1_">
</g>
<g id="GUIAS_1_">
</g>
<path fill="#424461" d="M20,33.9c0.5,0.2,1,0,1.2-0.6c0.1-0.4,0.4-1.4,0.4-1.9c0.2-0.6,0.1-0.8-0.4-1.3c-0.9-1.1-1.5-2.5-1.5-4.5
	c0-5.9,4.4-11.1,11.4-11.1c6.2,0,9.6,3.8,9.6,8.9c0,6.7-2.9,12.3-7.4,12.3c-2.4,0-4.3-2-3.6-4.4c0.7-2.9,2-6.1,2-8.2
	c0-1.9-1-3.5-3.1-3.5c-2.5,0-4.4,2.6-4.4,6c0,2.2,0.7,3.6,0.7,3.6s-2.6,10.7-3,12.6c-0.9,3.7-0.2,8.3-0.1,8.8c0,0.3,0.4,0.4,0.5,0.2
	c0.3-0.3,3.2-3.9,4.2-7.5c0.3-1.1,1.6-6.4,1.6-6.4c0.8,1.5,3.2,2.8,5.7,2.8c7.5,0,12.5-6.7,12.5-15.9c0-6.8-5.8-13.2-14.7-13.2
	c-11,0-16.5,7.9-16.5,14.5C15.3,29,16.8,32.6,20,33.9z"/>
</svg>
