<?xml version="1.0" encoding="utf-8"?>
<!-- Generator: Adobe Illustrator 18.1.1, SVG Export Plug-In . SVG Version: 6.00 Build 0)  -->
<svg version="1.1" id="Layer_1" xmlns="http://www.w3.org/2000/svg" xmlns:xlink="http://www.w3.org/1999/xlink" x="0px" y="0px"
	 viewBox="0 0 60 60" enable-background="new 0 0 60 60" xml:space="preserve">
<g id="Layer_1_1_">
</g>
<g id="FRAMES">
</g>
<g id="TEXTO_SOMBRA" opacity="0.27">
</g>
<g id="TEXTO">
</g>
<g id="FONDO_ACTIVO" display="none">
</g>
<g id="HOVER" display="none">
</g>
<g id="CATAS">
	<g>
		<path fill="#424461" d="M50.2,2.6c4,0,7.1,3.2,7.1,7.1v40.5c0,4-3.2,7.1-7.1,7.1H9.8c-4,0-7.1-3.2-7.1-7.1V9.8
			c0-4,3.2-7.1,7.1-7.1L50.2,2.6 M50.2,0.7H9.8c-5,0-9.1,4-9.1,9.1v40.5c0,5,4,9.1,9.1,9.1h40.5c5,0,9.1-4.1,9.1-9.1V9.8
			C59.3,4.8,55.2,0.7,50.2,0.7L50.2,0.7z"/>
	</g>
</g>
<g id="TEXTO_BLANCO">
</g>
<g id="CATALOGOS">
</g>
<g id="CATALOGOS_3d">
</g>
<g id="FOLLETOS">
</g>
<g id="CONCURSOS">
</g>
<g id="ILUSTRACION">
</g>
<g id="CONCURSOS_copy">
</g>
<g id="GUIAS">
</g>
<g id="Layer_1_2_">
</g>
<g id="FRAMES_1_">
</g>
<g id="TEXTO_SOMBRA_1_" opacity="0.27">
</g>
<g id="TEXTO_1_">
</g>
<g id="FONDO_ACTIVO_1_" display="none">
</g>
<g id="HOVER_1_" display="none">
</g>
<g id="TEXTO_BLANCO_1_">
</g>
<g id="CATALOGOS_1_">
</g>
<g id="CATALOGOS_3d_1_">
</g>
<g id="FOLLETOS_1_">
</g>
<g id="CONCURSOS_1_">
</g>
<g id="ILUSTRACION_1_">
</g>
<g id="CONCURSOS_copy_1_">
</g>
<g id="GUIAS_1_">
</g>
<path fill="#424461" d="M18.7,34.3c0.6,0.2,1.1,0,1.3-0.7c0.1-0.5,0.4-1.6,0.5-2.1c0.2-0.7,0.1-0.9-0.4-1.5c-1-1.2-1.7-2.8-1.7-5.1
	c0-6.6,4.9-12.5,12.8-12.5c7,0,10.8,4.3,10.8,10c0,7.5-3.3,13.9-8.3,13.9c-2.7,0-4.8-2.3-4.1-5c0.8-3.3,2.3-6.9,2.3-9.2
	c0-2.1-1.1-3.9-3.5-3.9c-2.8,0-5,2.9-5,6.7c0,2.5,0.8,4.1,0.8,4.1s-2.9,12.1-3.4,14.2c-1,4.2-0.2,9.4-0.1,9.9c0,0.3,0.4,0.4,0.6,0.2
	c0.3-0.3,3.6-4.4,4.7-8.5c0.3-1.2,1.8-7.2,1.8-7.2c0.9,1.7,3.6,3.2,6.4,3.2c8.4,0,14.1-7.6,14.1-17.9c0-7.7-6.5-14.9-16.5-14.9
	c-12.4,0-18.6,8.9-18.6,16.3C13.3,28.8,15,32.8,18.7,34.3z"/>
</svg>
