<?xml version="1.0" encoding="utf-8"?>
<!-- Generator: Adobe Illustrator 18.1.1, SVG Export Plug-In . SVG Version: 6.00 Build 0)  -->
<svg version="1.1" id="Layer_1" xmlns="http://www.w3.org/2000/svg" xmlns:xlink="http://www.w3.org/1999/xlink" x="0px" y="0px"
	 viewBox="0 0 600 600" enable-background="new 0 0 600 600" xml:space="preserve">
<g>
	<path fill="#424461" d="M100.8,37.7c-38.9,0-70.3,31.4-70.3,70.3v398.4c0,38.9,31.4,70.3,70.3,70.3h398.4
		c38.9,0,70.3-31.4,70.3-70.3V108c0-38.9-31.4-70.3-70.3-70.3L100.8,37.7 M100.8,19h398.4c49.2,0,89.1,39.8,89.1,89v398.4
		c0,49.2-39.8,89.1-89.1,89.1H100.8c-49.2,0-89.1-39.8-89.1-89.1V108C11.7,59.1,51.6,19,100.8,19L100.8,19z"/>
</g>
<rect x="86.5" y="472.9" fill="#424461" width="428.9" height="44.1"/>
<rect x="86.5" y="383.3" fill="#424461" width="428.9" height="44.1"/>
<rect x="86.5" y="293.6" fill="#424461" width="428.9" height="44.1"/>
<g>
	<rect x="472.6" y="90.2" fill="#424461" width="42.9" height="137.9"/>
	
		<rect x="356" y="143.7" transform="matrix(0.7071 -0.7071 0.7071 0.7071 12.2697 359.8459)" fill="#424461" width="169.1" height="42.9"/>
	<rect x="377.6" y="90.2" fill="#424461" width="137.9" height="42.9"/>
</g>
</svg>
