<?xml version="1.0" encoding="utf-8"?>
<!-- Generator: Adobe Illustrator 18.1.1, SVG Export Plug-In . SVG Version: 6.00 Build 0)  -->
<svg version="1.1" id="Layer_1" xmlns="http://www.w3.org/2000/svg" xmlns:xlink="http://www.w3.org/1999/xlink" x="0px" y="0px"
	 viewBox="0 0 600 600" enable-background="new 0 0 600 600" xml:space="preserve">
<g>
	<path fill="#424461" d="M100.8,37.7c-38.9,0-70.3,31.4-70.3,70.3v398.4c0,38.9,31.4,70.3,70.3,70.3h398.4
		c38.9,0,70.3-31.4,70.3-70.3V108c0-38.9-31.4-70.3-70.3-70.3L100.8,37.7 M100.8,19h398.4c49.2,0,89.1,39.8,89.1,89v398.4
		c0,49.2-39.8,89.1-89.1,89.1H100.8c-49.2,0-89.1-39.8-89.1-89.1V108C11.7,59.1,51.6,19,100.8,19L100.8,19z"/>
</g>
<g>
	<rect x="86.5" y="119.2" fill="#424461" width="206.5" height="26.8"/>
	<rect x="86.5" y="191" fill="#424461" width="206.5" height="26.8"/>
	<rect x="374.1" y="334.6" fill="#424461" width="78.9" height="26.8"/>
	<rect x="413.5" y="406.4" fill="#424461" width="102" height="26.8"/>
	<rect x="86.5" y="262.8" fill="#424461" width="111.4" height="26.8"/>
	<rect x="232.6" y="262.8" fill="#424461" width="282.8" height="26.8"/>
	<rect x="86.5" y="334.6" fill="#424461" width="251.7" height="26.8"/>
	<rect x="86.5" y="406.4" fill="#424461" width="108.1" height="26.8"/>
	<rect x="220.9" y="406.4" fill="#424461" width="166.3" height="26.8"/>
	<rect x="86.5" y="478.2" fill="#424461" width="190.1" height="26.8"/>
	<rect x="309.5" y="478.2" fill="#424461" width="190.1" height="26.8"/>
</g>
<g>
	<rect x="444.4" y="119.2" fill="#424461" width="26.8" height="98.6"/>
	
		<rect x="345.2" y="163.5" transform="matrix(0.7071 -0.7071 0.7071 0.7071 -3.9922 344.1966)" fill="#424461" width="136.6" height="26.8"/>
	<rect x="372.6" y="119.2" fill="#424461" width="98.6" height="26.8"/>
</g>
</svg>
