<?xml version="1.0" encoding="utf-8"?>
<!-- Generator: Adobe Illustrator 18.1.1, SVG Export Plug-In . SVG Version: 6.00 Build 0)  -->
<svg version="1.1" id="Layer_1" xmlns="http://www.w3.org/2000/svg" xmlns:xlink="http://www.w3.org/1999/xlink" x="0px" y="0px"
	 viewBox="0 0 600 600" enable-background="new 0 0 600 600" xml:space="preserve">
<g>
	<path fill="#424461" d="M499.2,37.7c38.9,0,70.3,31.4,70.3,70.3v398.4c0,38.9-31.4,70.3-70.3,70.3H100.8
		c-38.9,0-70.3-31.4-70.3-70.3V108c0-38.9,31.4-70.3,70.3-70.3L499.2,37.7 M499.2,19H100.8C51.6,19,11.7,58.8,11.7,108v398.4
		c0,49.2,39.8,89.1,89.1,89.1h398.4c49.2,0,89.1-39.8,89.1-89.1V108C588.3,59.1,548.4,19,499.2,19L499.2,19z"/>
</g>
<rect x="210.2" y="252.2" fill="#424461" width="179.3" height="250.3"/>
<path fill="#424461" d="M120.5,286.6l150-161.7c14.5-15.7,44.5-15.7,59.1,0l150,161.7c17.6,19,0.2,45.5-29.5,45.5H150
	C120,331.9,102.9,305.4,120.5,286.6z"/>
</svg>
