<?xml version="1.0" encoding="utf-8"?>
<!-- Generator: Adobe Illustrator 18.1.1, SVG Export Plug-In . SVG Version: 6.00 Build 0)  -->
<svg version="1.1" id="Layer_1" xmlns="http://www.w3.org/2000/svg" xmlns:xlink="http://www.w3.org/1999/xlink" x="0px" y="0px"
	 viewBox="0 0 600 600" enable-background="new 0 0 600 600" xml:space="preserve">
<g id="Layer_1_1_">
</g>
<g id="CATAS">
	<g>
		<g>
			<path fill="#424461" d="M499.2,37.7c38.9,0,70.3,31.4,70.3,70.3v398.4c0,38.9-31.4,70.3-70.3,70.3H100.8
				c-38.9,0-70.3-31.4-70.3-70.3V108c0-38.9,31.4-70.3,70.3-70.3L499.2,37.7 M499.2,19H100.8C51.6,19,11.7,58.8,11.7,108v398.4
				c0,49.2,39.8,89.1,89.1,89.1h398.4c49.2,0,89.1-39.8,89.1-89.1V108C588.3,59.1,548.4,19,499.2,19L499.2,19z"/>
		</g>
	</g>
	<g>
		<path fill="#424461" d="M360,163.6c9.4-7,20.6-12,32.3-13.6c-1.4,5.9-5.9,10.1-10.8,13.4c9.1-2.8,18.8-7.3,28.8-5.2
			c4,2.3,2.6,8-1.2,9.8c-10.3,6.3-23,7.3-34,11.7c27.7-1.4,54.4,12.7,72,33.5c13.1,15,21.3,33.8,25.3,53.2c18,4.7,37,0.9,53.9-6.3
			c-8,19-29.1,27.9-48.3,30c16.2,5.4,33.5,6.8,50.2,4.7c-13.4,15.2-34.2,21.1-53.9,21.1c-4.5,12-8,24.6-14.3,35.9
			c-25.3,48.5-72.9,82.5-124.2,99.4c-49.9,16.2-105,17.8-154.9,1.4c-43.4-14.1-82.3-42.2-108.5-79.7c22.5,20.9,53,33.3,83.9,32.6
			c31.6,0.5,62.1-13.6,84.6-35.6c-9.8,0.2-21.1-1.4-27.9-9.4c-4.9-4.9-5.2-13.4-1.2-19c3-4.9,8.2-7.7,13.1-10.8
			c-21.6,2.1-44.3-8.4-53.9-28.4c7.5-7.7,17.8-10.8,28.1-12.7c-14.1-4-28.4-10.1-37.5-22c-5.2-6.8-8.9-15-9.4-23.4
			c8.7-1.4,17.3-3,26.2-3.5c-21.1-10.5-39.4-32.1-37.5-57c37.5,13.8,74.3,29.1,109.9,47.6c15.7,7.5,29.1,18.8,41,31.4
			c11-25.5,20.9-51.8,36.8-74.5c9.6-13.8,21.3-26.7,35.9-35.6C362.3,156.8,361.2,160.1,360,163.6z"/>
	</g>
</g>
<g id="TEXTO_BLANCO">
</g>
<g id="GUIAS">
</g>
</svg>
