<?xml version="1.0" encoding="utf-8"?>
<!-- Generator: Adobe Illustrator 18.1.1, SVG Export Plug-In . SVG Version: 6.00 Build 0)  -->
<svg version="1.1" id="Layer_1" xmlns="http://www.w3.org/2000/svg" xmlns:xlink="http://www.w3.org/1999/xlink" x="0px" y="0px"
	 viewBox="0 0 600 600" enable-background="new 0 0 600 600" xml:space="preserve">
<g id="Layer_1_1_">
</g>
<g id="FRAMES">
</g>
<g id="TEXTO_SOMBRA" opacity="0.27">
</g>
<g id="TEXTO">
</g>
<g id="FONDO_ACTIVO" display="none">
</g>
<g id="HOVER" display="none">
</g>
<g id="CATAS">
	<g>
		<path fill="#424461" d="M502.5,26.1c39.6,0,71.4,31.9,71.4,71.4v404.8c0,39.6-31.9,71.4-71.4,71.4H97.6
			c-39.6,0-71.4-31.9-71.4-71.4V97.6c0-39.6,31.9-71.4,71.4-71.4L502.5,26.1 M502.5,7.1H97.6c-50,0-90.5,40.5-90.5,90.5v404.8
			c0,50,40.5,90.5,90.5,90.5h404.8c50,0,90.5-40.5,90.5-90.5V97.6C592.9,47.8,552.5,7.1,502.5,7.1L502.5,7.1z"/>
	</g>
</g>
<g id="TEXTO_BLANCO">
</g>
<g id="CATALOGOS">
</g>
<g id="CATALOGOS_3d">
</g>
<g id="FOLLETOS">
</g>
<g id="CONCURSOS">
</g>
<g id="ILUSTRACION">
</g>
<g id="CONCURSOS_copy">
</g>
<g id="GUIAS">
</g>
<g id="Layer_1_2_">
</g>
<g id="FRAMES_1_">
</g>
<g id="TEXTO_SOMBRA_1_" opacity="0.27">
</g>
<g id="TEXTO_1_">
</g>
<g id="FONDO_ACTIVO_1_" display="none">
</g>
<g id="HOVER_1_" display="none">
</g>
<g id="TEXTO_BLANCO_1_">
</g>
<g id="CATALOGOS_1_">
</g>
<g id="CATALOGOS_3d_1_">
</g>
<g id="FOLLETOS_1_">
</g>
<g id="CONCURSOS_1_">
</g>
<g id="ILUSTRACION_1_">
</g>
<g id="CONCURSOS_copy_1_">
</g>
<g id="GUIAS_1_">
</g>
<g>
	<g>
		<path fill="#424461" d="M441.5,226c-7.5-9.4-20.8-23.7-31.9-34.8c-11.3-11.3-20.6-19.6-35.7-32.6L300,232.5l-73.9-73.9
			c-15.1,13.1-24.4,21.3-35.7,32.6c-11.1,11.1-24.4,25.4-31.9,34.8l74,74l-74,74c13,15.1,21.3,24.4,32.6,35.7
			c11.2,11,25.5,24.3,34.9,31.7l73.9-73.9l73.9,73.9c9.4-7.5,23.7-20.7,34.9-31.7c11.3-11.3,19.6-20.6,32.6-35.7l-74-74L441.5,226z"
			/>
	</g>
	<g>
		<path fill="none" d="M441.5,226c-7.5-9.4-20.8-23.7-31.9-34.8c-11.3-11.3-20.6-19.6-35.7-32.6L300,232.5l-73.9-73.9
			c-15.1,13.1-24.4,21.3-35.7,32.6c-11.1,11.1-24.4,25.4-31.9,34.8l74,74l-74,74c13,15.1,21.3,24.4,32.6,35.7
			c11.2,11,25.5,24.3,34.9,31.7l73.9-73.9l73.9,73.9c9.4-7.5,23.7-20.7,34.9-31.7c11.3-11.3,19.6-20.6,32.6-35.7l-74-74L441.5,226z"
			/>
	</g>
</g>
</svg>
